<svg preserveAspectRatio="xMidYMid meet" data-bbox="25.037 29.503 150.026 140.997" viewBox="25.037 29.503 150.026 140.997" xmlns="http://www.w3.org/2000/svg" data-type="color" role="presentation" aria-hidden="true" aria-label=""><defs></defs>
    <g>
        <path d="M100 170.5c-.6 0-1.2-.2-1.7-.5L50 139.8c-.9-.5-1.5-1.6-1.5-2.7V83.3c0-1.1.6-2.2 1.6-2.7s2.2-.5 3.2 0l48.3 26.7c1 .5 1.7 1.6 1.7 2.7v57.2c0 1.2-.6 2.2-1.7 2.7-.5.5-1 .6-1.6.6zm-45.1-35.2l41.9 26.2v-49.6L54.9 88.7v46.6z" fill="#fff" data-color="1"></path>
        <path d="M103.1 65.4l-9-33.5c-.2-.8-.7-1.6-1.5-1.9-.7-.5-1.7-.5-2.5-.4l-49.4 13c-1.7.4-2.7 2.2-2.2 3.8l5.6 21c2.5.9 5 1.9 7.5 2.9l-6-22.4 43.1-11.4 7.5 27.7-33.1 11.7c1.5.7 2.9 1.5 4.3 2.3.2.1.4.2.6.4.5.1.9.1 1.5.1.9 0 1.7.4 2.4 1l29.4-10.3c1.4-.7 2.3-2.4 1.8-4z" fill="#fff" data-color="1"></path>
        <path d="M100 170.5c-.6 0-1.1-.1-1.6-.4-1-.5-1.7-1.6-1.7-2.7v-57.3c0-1.2.6-2.2 1.7-2.7l48.3-26.7c1-.5 2.2-.5 3.2 0s1.6 1.6 1.6 2.7v53.8c0 1.1-.6 2.1-1.5 2.7L101.7 170c-.5.3-1.1.5-1.7.5zm3.2-58.6v49.6l41.9-26.2V88.7l-41.9 23.2z" fill="#fff" data-color="1"></path>
        <path d="M101.1 63.2c-.7-.3-1.5-.3-2.2 0l-35 12.5c2.6 1 5.2 2.2 7.5 3.8l.3.3L100 69.6l29.2 10.3c.4-.5 1-1 1.8-1.2 2.5-.6 5-1.5 7.4-2.3l-37.3-13.2z" fill="#fff" data-color="1"></path>
        <path d="M151.6 83.1c-.1-.6-.3-1.3-.7-1.7-4 1.9-8 3.6-12 5.5-1.2.5-2.3.4-3.1-.1L100 106.4 63.5 86.3c-4.7-.5-8.4-2.4-12-5.5-.2-.2-.4-.4-.6-.5l-.5.2c-1.2.5-2 1.5-2.1 2.7-.1 1.3.6 2.5 1.7 3l48.3 26.6c.5.3 1 .4 1.6.4s1.1-.1 1.6-.4l48.3-26.7c1.2-.7 1.9-1.8 1.8-3z" fill="#fff" data-color="1"></path>
        <path d="M159.2 42.6l-49.4-13c-.8-.2-1.7-.1-2.5.4-.7.5-1.3 1.1-1.5 1.9l-9 33.5c-.5 1.6.5 3.3 2 3.8L129.6 80c.7-.3 1.5-.6 2.2-.9 1.6-1.4 3.3-2.4 5.2-3.2l-33.2-11.7 7.5-27.7 43.1 11.4-5.6 21c2.7-1.3 5.2-3 7.7-4.5 0 0 .1 0 .1-.1l4.8-17.9c.6-1.6-.4-3.4-2.2-3.8z" fill="#fff" data-color="1"></path>
        <path d="M100 113.3c-.6 0-1.1-.1-1.6-.4L50.1 86.1c-.4-.2-.6-.5-.8-.7L25.8 58.6c-1-1.2-1-2.8-.1-4s2.7-1.6 4.1-.8l50.4 26c.4.2.7.5 1 .9l21.5 27.5c.9 1.2.9 2.8-.1 4-.8.7-1.7 1.1-2.6 1.1zM53.7 80.8l34.1 18.9-11.4-14.6-34.7-18 12 13.7z" fill="#fff" data-color="1"></path>
        <path d="M100 113.3c-.9 0-1.8-.4-2.5-1.1-1-1.2-1-2.8-.1-4l21.5-27.5c.3-.4.6-.6 1-.9l50.4-26c1.4-.7 3-.4 4.1.8.9 1.2.9 2.9-.1 4l-23.5 26.7c-.3.3-.6.5-.8.7l-48.3 26.7c-.6.4-1.1.6-1.7.6zm23.6-28.2l-11.4 14.6 34.1-18.9 12-13.6" fill="#fff" data-color="1"></path>
    </g>
</svg>