<svg preserveAspectRatio="xMidYMid meet" data-bbox="56.694 171.496 453.543 223.937" viewBox="56.694 171.496 453.543 223.937" height="566.929" width="566.929" xmlns="http://www.w3.org/2000/svg" data-type="color" role="presentation" aria-hidden="true" aria-label=""><defs></defs>
    <g>
        <path d="M397.257 195.928c52.269 0 88.558 36.674 88.558 87.537 0 46.727-39.365 87.537-93.485 87.537-45.517 0-79.33-34.894-108.865-63.272-31.362 30.157-63.974 63.272-113.792 63.272-51.669 0-88.558-36.674-88.558-87.537 0-46.726 39.364-87.537 93.485-87.537 45.517 0 79.354 34.895 108.865 63.296 31.361-30.158 63.973-63.296 113.792-63.296m-4.302 139.601c30.761 0 54.12-24.265 54.12-52.065 0-30.157-22.134-52.042-52.27-52.042-35.063 0-63.373 28.979-86.732 52.042 23.984 21.307 49.194 52.065 84.882 52.065m-220.807 0c35.039 0 63.349-29.002 86.708-52.065-23.984-21.283-49.194-52.042-84.881-52.042-30.737 0-54.12 24.241-54.12 52.042-.001 30.181 22.157 52.065 52.293 52.065m225.109-164.033c-49.986 0-84.344 26.488-113.76 53.923-28.224-26.467-62.824-53.923-108.897-53.923-32.074 0-61.907 11.756-84.002 33.103-21.863 21.123-33.904 49.131-33.904 78.865 0 31.197 11.416 59.682 32.145 80.207 20.686 20.482 49.393 31.762 80.834 31.762 49.99 0 84.35-26.477 113.769-53.91 28.217 26.439 62.813 53.91 108.888 53.91 32.074 0 61.907-11.756 84.003-33.103 21.863-21.122 33.904-49.131 33.904-78.865-.001-64.879-47.516-111.969-112.98-111.969zm-53.705 111.656c16.089-14.726 33.417-27.297 51.253-27.297 16.657 0 27.848 11.096 27.848 27.61 0 15.237-13.323 27.633-29.698 27.633-17.617 0-33.271-12.894-49.403-27.946zm-171.404 27.946c-16.671 0-27.872-11.105-27.872-27.633 0-15.224 13.323-27.61 29.699-27.61 17.615 0 33.265 12.888 49.398 27.932-16.088 14.729-33.413 27.311-51.225 27.311z" fill="#fff" data-color="1"></path>
    </g>
</svg>